<svg class="iconLeft" data-v-fde0c5aa="" version="1.1" viewBox="0 0 25.888 27.391" xmlns="http://www.w3.org/2000/svg">
    <g id="b" transform="matrix(.34349 0 0 .34349 -4.1851 -3.0764)" fill="url(#a)" style="fill:#89d5e6" data-v-fde0c5aa="">
        <path d="m38.2 88.7c-2.3 0-4.7-0.4-7-1.1-8.5-2.7-14.4-10-15.3-18.9l-3.6-35.3c-0.7-6.9 1.8-13.5 6.8-18.3s11.8-6.9 18.6-5.9l30.9 4.6c8.2 1.2 14.8 6.6 17.6 14.4s1.2 16.1-4.3 22.3l-27.2 30.7c-4.4 4.9-10.3 7.5-16.5 7.5zm-3.8-74.8c-4.4 0-8.6 1.7-11.8 4.8-3.9 3.7-5.8 8.9-5.2 14.2l3.6 35.3c0.7 6.9 5.2 12.5 11.8 14.6s13.6 0.2 18.2-5l27.3-30.7c4.3-4.8 5.5-11.3 3.3-17.3s-7.3-10.2-13.6-11.1l-31-4.6c-0.9-0.1-1.7-0.2-2.6-0.2z" style="fill:#89d5e6"/>
    </g>
</svg>
